<svg width="16" height="16" fill="none" xmlns="http://www.w3.org/2000/svg">
  <path d="M13.06.887L13.06.886c-.453-.176-.98-.3-1.785-.339l1.786.34zm0 0c.466.179.851.417 1.244.81h0M13.06.886l1.244.81m0 0l.003.002m-.003-.003l.003.003m0 0c.355.349.63.771.805 1.237h0m-.805-1.237l.805 1.237m0 0l.002.005m-.002-.005l.002.005m0 0c.175.453.3.98.338 1.784.038.842.048 1.105.048 3.275 0 2.172-.008 2.434-.047 3.274-.038.805-.163 1.331-.34 1.786h0m0-10.12v10.12m0 0l-.001.005m.002-.005l-.002.005m0 0c-.175.465-.45.887-.805 1.236h0m.805-1.236l-.805 1.236m0 0l-.006.006m.006-.006l-.006.006m0 0c-.349.355-.771.63-1.237.805h0m1.237-.805l-1.237.805m0 0l-.005.002m.005-.002l-.005.002m0 0c-.453.175-.98.3-1.784.338-.842.038-1.105.048-3.275.048-2.172 0-2.433-.008-3.274-.047-.805-.038-1.331-.163-1.785-.34h0m10.118 0H2.941m0 0l-.005-.001m.005.002l-.005-.002m0 0a3.412 3.412 0 01-1.237-.805h0m1.237.805l-1.237-.805m0 0l-.006-.006m.006.006l-.006-.006m0 0a3.423 3.423 0 01-.805-1.237h0m.805 1.237l-.805-1.237m0 0l-.002-.005m.002.005l-.002-.005m0 0c-.176-.452-.3-.979-.339-1.784C.51 10.433.5 10.17.5 8c0-2.172.008-2.433.047-3.274.038-.807.163-1.332.339-1.785h0m0 10.118V2.94m0 0l.002-.006m-.002.006l.002-.006m0 0c.175-.465.45-.887.804-1.236h0M.889 2.935L1.693 1.7m0 0l.006-.006m-.006.006l.006-.006m0 0c.349-.355.77-.63 1.237-.805h0m-1.237.805L2.936.888m0 0L2.94.886m-.005.002L2.94.886m0 0c.453-.176.978-.3 1.784-.339C5.567.51 5.83.5 8 .5c2.172 0 2.434.008 3.274.047L2.941.886zM8 3.5a4.5 4.5 0 103.43 1.588 1.5 1.5 0 10-.518-.518A4.5 4.5 0 008 3.5zm0 2.6a1.9 1.9 0 110 3.8 1.9 1.9 0 010-3.8z" fill="#1F1E25" stroke="#000"/>
</svg>
